<?xml version="1.0" standalone="no"?>
<!DOCTYPE svg PUBLIC "-//W3C//DTD SVG 20010904//EN"
 "http://www.w3.org/TR/2001/REC-SVG-20010904/DTD/svg10.dtd">
<svg version="1.0" xmlns="http://www.w3.org/2000/svg"
 width="700.000000pt" height="700.000000pt" viewBox="0 0 700.000000 700.000000"
 preserveAspectRatio="xMidYMid meet">
<metadata>
Created by potrace 1.11, written by Peter Selinger 2001-2013
</metadata>
<g transform="translate(0.000000,700.000000) scale(0.100000,-0.100000)"
fill="#000000" stroke="none">
<path d="M3482 6876 c-7 -35 -28 -115 -48 -177 -19 -63 -37 -121 -39 -129 -2
-8 -19 -67 -38 -130 -42 -137 -74 -254 -81 -293 -15 -86 -26 -145 -31 -172 -6
-34 -6 -210 0 -270 2 -22 7 -67 10 -100 3 -33 8 -69 10 -80 3 -11 7 -36 9 -55
3 -19 10 -60 16 -90 6 -30 13 -66 15 -80 8 -44 74 -305 99 -392 13 -46 26
-106 29 -132 3 -26 8 -50 11 -54 4 -3 29 -6 56 -7 52 0 60 8 60 64 0 13 27
130 59 260 33 130 63 250 66 266 20 100 46 259 51 310 3 33 8 63 10 67 6 10 5
268 -1 303 -29 159 -41 212 -76 337 -22 79 -58 200 -80 269 -22 69 -52 176
-68 237 l-28 111 -11 -63z"/>
<path d="M2567 6115 c-106 -124 -138 -245 -131 -487 11 -367 125 -680 322
-885 l41 -43 266 0 c146 0 265 4 265 8 0 5 -11 36 -25 69 -26 66 -86 166 -267
448 -64 100 -126 199 -138 220 -12 22 -32 58 -46 80 -138 227 -193 366 -225
563 -7 39 -15 72 -18 72 -3 -1 -23 -21 -44 -45z"/>
<path d="M4375 6068 c-43 -238 -116 -390 -403 -841 -59 -92 -134 -211 -167
-265 -63 -101 -133 -248 -123 -258 3 -3 122 -5 263 -4 292 1 267 -6 351 94
179 215 274 514 276 871 1 174 -10 242 -58 340 -27 56 -102 155 -118 155 -2 0
-11 -42 -21 -92z"/>
<path d="M1828 5367 c-30 -32 -39 -71 -43 -192 -3 -78 1 -124 18 -220 37 -203
204 -543 339 -690 15 -16 28 -40 28 -52 0 -18 6 -23 28 -24 15 -1 537 0 1161
1 700 1 1131 -2 1128 -7 -7 -12 298 -12 309 0 4 4 22 7 41 7 18 0 33 3 34 8 1
4 2 21 3 37 2 19 26 62 63 115 162 223 281 539 288 763 2 87 -1 119 -20 205
-3 12 -14 31 -25 42 -31 31 -55 11 -79 -63 -31 -93 -63 -138 -197 -274 -66
-67 -133 -137 -150 -155 -33 -37 -104 -150 -104 -166 0 -7 40 -12 112 -14
l112 -3 0 -170 0 -170 -1347 -3 -1347 -2 0 180 0 180 91 0 c89 0 90 0 84 23
-15 48 -86 137 -219 271 -147 148 -206 227 -225 300 -6 25 -22 57 -35 72 l-23
28 -25 -27z"/>
<path d="M1449 4706 c-2 -2 -24 -7 -49 -11 -91 -13 -106 -16 -156 -39 -106
-49 -165 -149 -166 -281 -1 -86 4 -111 35 -178 44 -93 140 -174 273 -230 67
-29 232 -73 305 -83 27 -4 49 -10 49 -13 0 -4 -35 -16 -77 -26 -43 -10 -82
-20 -88 -22 -41 -12 -256 -54 -324 -63 -123 -17 -265 -14 -336 5 -80 23 -296
28 -390 10 -183 -36 -363 -133 -488 -263 l-39 -39 30 -22 c80 -57 374 -81 583
-47 178 29 320 72 632 190 37 14 67 23 67 21 0 -2 -25 -29 -57 -62 -175 -181
-258 -449 -217 -703 43 -267 224 -521 464 -653 95 -52 173 -70 315 -70 108 0
127 3 190 28 74 29 148 75 178 110 57 65 148 267 171 377 3 13 8 34 11 48 16
71 31 230 29 317 -2 125 -10 181 -34 246 -20 53 -95 154 -103 140 -3 -5 -8
-30 -11 -58 -15 -111 -46 -204 -105 -320 -61 -117 -103 -180 -196 -290 -118
-139 -136 -183 -150 -370 -6 -82 -18 -140 -34 -163 -17 -27 -136 20 -256 101
-99 67 -155 118 -215 198 -123 164 -140 213 -146 429 -3 114 0 171 11 217 16
67 75 207 83 198 3 -3 7 -40 8 -83 7 -223 46 -365 122 -447 73 -79 199 -114
304 -85 61 17 137 108 154 184 11 46 11 128 1 168 -15 60 -88 131 -149 146
-96 24 -181 8 -205 -39 -20 -38 -31 -105 -21 -123 11 -20 53 -21 108 -1 102
36 139 6 100 -82 -31 -71 -107 -90 -184 -45 -92 54 -149 282 -121 487 11 78
19 90 100 154 240 191 550 268 819 202 98 -24 252 -83 336 -130 30 -17 59 -31
63 -31 5 0 8 17 6 38 -1 20 -1 51 0 68 l1 30 63 -1 c34 -1 66 0 71 3 17 10
1330 5 1366 -5 19 -5 65 -9 103 -8 l67 1 0 -57 0 -57 53 29 c86 48 233 101
342 124 100 22 299 8 438 -29 166 -45 414 -206 432 -280 26 -102 25 -266 -1
-373 -8 -32 -56 -129 -78 -156 -33 -42 -150 -55 -188 -21 -24 23 -40 67 -36
105 3 30 7 34 36 37 19 2 54 -4 80 -12 90 -31 115 -16 101 60 -14 76 -35 101
-95 114 -43 10 -134 -4 -179 -27 -70 -36 -107 -108 -108 -207 -2 -171 94 -286
239 -286 56 0 142 27 182 57 121 91 163 225 171 543 l1 45 26 -50 c35 -69 62
-153 71 -217 15 -122 2 -311 -27 -396 -27 -77 -138 -239 -207 -302 -111 -102
-302 -210 -369 -210 -17 0 -41 88 -49 175 -3 39 -8 79 -10 91 -3 12 -7 39 -11
60 -10 67 -38 116 -129 224 -122 146 -172 226 -237 380 -38 88 -64 196 -67
274 -1 17 -6 15 -36 -14 -76 -74 -113 -201 -109 -375 2 -94 12 -217 19 -238 2
-7 6 -28 9 -47 16 -114 88 -301 151 -396 63 -95 172 -164 287 -182 54 -8 203
-8 248 1 193 37 380 173 507 370 139 214 175 408 128 678 -10 57 -65 186 -106
250 -23 35 -69 92 -103 128 -33 35 -52 61 -41 57 45 -18 246 -90 325 -117 133
-47 319 -91 435 -104 50 -6 284 -7 293 -1 4 2 33 7 65 10 80 10 177 46 177 67
0 4 -23 29 -51 57 -112 111 -311 217 -464 248 -142 29 -283 28 -399 -2 -57
-15 -295 -22 -315 -10 -4 3 -36 8 -72 12 -35 3 -67 8 -70 10 -4 2 -24 6 -45 9
-37 6 -235 54 -299 74 -36 10 -27 15 70 32 39 6 93 20 120 29 28 10 55 18 60
19 67 10 210 89 273 150 87 84 123 176 118 296 -9 188 -129 300 -331 310 -158
7 -274 -62 -326 -195 -8 -20 -13 -70 -13 -116 1 -153 61 -221 193 -219 101 2
106 21 41 158 -54 113 -39 150 57 146 101 -4 151 -78 139 -202 -8 -89 -61
-158 -176 -229 -170 -106 -319 -143 -646 -163 -52 -3 -100 -15 -180 -46 -60
-23 -122 -45 -139 -50 -34 -11 -113 -14 -121 -6 -3 3 8 25 24 49 28 40 57 73
156 176 l41 43 -131 -74 c-89 -50 -137 -72 -150 -67 -10 3 -392 5 -849 4
l-830 -1 -183 103 -184 103 116 -119 c63 -66 129 -140 146 -165 31 -45 31 -45
8 -46 -51 -4 -97 4 -163 28 -38 14 -101 36 -138 50 -46 16 -98 26 -155 29
-367 18 -564 85 -722 243 -63 63 -78 101 -75 193 4 103 61 159 158 154 85 -4
92 -42 31 -166 -57 -115 -43 -144 64 -136 78 6 106 18 134 58 36 50 46 89 44
175 -5 168 -94 269 -262 298 -17 2 -33 3 -35 1z"/>
<path d="M2810 3540 c-6 -3 -37 -6 -70 -5 -66 1 -62 7 -62 -83 0 -29 3 -56 7
-60 4 -4 52 -7 108 -7 l102 0 0 -693 1 -694 54 -26 c71 -34 165 -36 225 -5 44
22 61 20 87 -11 55 -65 132 -299 156 -471 10 -73 5 -557 -7 -710 -1 -8 -26 35
-151 260 -82 148 -217 325 -358 469 -234 239 -494 359 -825 381 l-82 5 55 -27
c64 -31 209 -171 288 -278 29 -38 73 -113 98 -165 90 -188 126 -241 230 -342
110 -105 159 -137 289 -188 146 -56 217 -102 318 -205 43 -44 80 -94 102 -138
30 -60 35 -79 35 -141 0 -39 -5 -89 -11 -111 -15 -60 -11 -156 9 -221 l18 -59
81 -3 81 -3 16 48 c24 67 30 159 16 226 -18 88 -16 181 5 229 26 59 95 156
141 198 99 90 182 140 329 194 95 35 181 93 273 185 91 90 138 158 181 263 80
191 260 414 408 504 l58 35 -82 -6 c-45 -3 -91 -8 -101 -10 -11 -2 -42 -7 -69
-11 -66 -10 -214 -59 -293 -97 -255 -122 -538 -420 -732 -767 -71 -128 -130
-230 -132 -230 -10 0 -14 665 -4 735 20 131 94 352 148 437 32 51 37 52 108
20 56 -25 135 -22 199 9 26 13 57 24 68 24 27 0 31 31 29 205 -3 301 -5 634
-5 906 l1 281 93 0 c50 1 99 1 107 2 13 1 16 15 17 71 0 44 -4 71 -11 72 -6 0
-315 2 -686 4 -371 2 -714 5 -763 7 -48 2 -92 0 -97 -3z m450 -160 c4 -6 4
-994 1 -1306 l-1 -61 -106 1 -107 1 1 645 c0 545 3 721 11 726 9 5 197 -1 201
-6z m357 1 c10 -1 13 -150 15 -693 l3 -693 23 1 c12 1 22 0 22 -3 0 -2 -16
-30 -37 -61 -20 -31 -44 -75 -54 -97 l-19 -40 0 108 0 107 -37 1 c-21 0 -50 2
-65 3 -28 2 -28 1 -29 -64 0 -36 0 -85 1 -110 l2 -45 -37 70 c-21 39 -46 81
-56 94 -27 34 -24 38 21 36 34 -2 40 1 41 19 0 12 1 167 1 346 0 194 4 317 9
305 5 -12 6 32 3 110 -9 249 -11 520 -3 500 5 -13 8 0 8 42 1 49 4 62 18 65
14 3 134 2 170 -1z m380 -686 l2 -690 -103 -1 -103 -1 -7 346 c-4 190 -6 502
-5 692 l2 346 106 -2 106 -1 2 -689z"/>
</g>
</svg>
